<!-- Generated by IcoMoon.io -->
<svg version="1.1" xmlns="http://www.w3.org/2000/svg" width="33" height="32" viewBox="0 0 33 32">
<title>Nova_Poshta</title>
<path d="M15.832 0.081c-0.165 0.067-0.55 0.434-3.214 3.067-1.667 1.646-3.053 3.035-3.081 3.088-0.053 0.105-0.063 0.27-0.021 0.333 0.074 0.112 0.186 0.119 1.624 0.119 0.921 0 1.495 0.014 1.586 0.038 0.221 0.060 0.392 0.196 0.49 0.392l0.088 0.179v2.314c0 2.556 0 2.559 0.217 2.78 0.242 0.245 0.060 0.231 2.776 0.231 2.325 0 2.458-0.004 2.573-0.067 0.172-0.091 0.277-0.193 0.361-0.354 0.077-0.14 0.077-0.165 0.095-2.577l0.017-2.433 0.095-0.147c0.053-0.077 0.172-0.189 0.263-0.242l0.168-0.098 1.474-0.018c1.39-0.018 1.481-0.021 1.551-0.084 0.088-0.081 0.095-0.196 0.017-0.354-0.032-0.067-1.369-1.418-3.077-3.105-2.762-2.731-3.039-2.993-3.218-3.067-0.256-0.102-0.536-0.098-0.784 0.004z"></path>
<path d="M5.868 9.828c-1.968 1.912-5.71 5.651-5.766 5.759-0.091 0.182-0.116 0.403-0.060 0.557 0.067 0.182 6.060 6.228 6.281 6.333 0.189 0.095 0.284 0.081 0.378-0.046l0.074-0.098v-6.344c0-3.491-0.011-6.386-0.028-6.438-0.038-0.14-0.119-0.203-0.259-0.203-0.112 0-0.172 0.046-0.62 0.48z"></path>
<path d="M25.901 9.565c-0.060 0.105-0.084 12.383-0.028 12.6 0.046 0.165 0.119 0.242 0.231 0.242 0.081 0 0.424-0.333 5.084-4.954 0.623-0.616 1.159-1.169 1.19-1.225 0.081-0.154 0.074-0.424-0.021-0.62-0.063-0.123-0.641-0.707-2.538-2.556-1.351-1.313-2.727-2.654-3.056-2.979-0.515-0.497-0.62-0.585-0.711-0.585-0.074 0-0.119 0.024-0.151 0.077z"></path>
<path d="M13.731 19.189c-0.168 0.084-0.308 0.249-0.378 0.441-0.035 0.105-0.046 0.63-0.049 2.601 0 1.498-0.014 2.517-0.035 2.587-0.056 0.203-0.207 0.382-0.396 0.476l-0.179 0.088h-1.4c-1.267 0-1.414 0.007-1.526 0.063-0.091 0.042-0.126 0.088-0.133 0.158-0.011 0.088 0.291 0.403 3.007 3.133 2.059 2.073 3.074 3.067 3.197 3.14 0.144 0.084 0.217 0.105 0.389 0.105 0.168 0 0.245-0.021 0.392-0.105 0.133-0.074 1.043-0.97 3.197-3.14 2.696-2.717 3.014-3.049 3.004-3.133-0.007-0.070-0.046-0.116-0.133-0.158-0.109-0.056-0.256-0.063-1.421-0.063-0.896 0-1.337-0.014-1.418-0.042-0.189-0.063-0.336-0.196-0.434-0.389l-0.088-0.179v-2.472c0-2.808 0.007-2.724-0.259-2.969-0.084-0.077-0.214-0.158-0.287-0.179-0.091-0.024-0.935-0.038-2.517-0.038-2.356 0-2.381 0-2.531 0.074z"></path>
</svg>
