<svg aria-hidden="true" style="position: absolute; width: 0; height: 0; overflow: hidden;" version="1.1" xmlns="http://www.w3.org/2000/svg" xmlns:xlink="http://www.w3.org/1999/xlink">
<defs>
<symbol id="icon-Nova_Poshta" viewBox="0 0 33 32">
<path d="M15.832 0.081c-0.165 0.067-0.55 0.434-3.214 3.067-1.667 1.646-3.053 3.035-3.081 3.088-0.053 0.105-0.063 0.27-0.021 0.333 0.074 0.112 0.186 0.119 1.624 0.119 0.921 0 1.495 0.014 1.586 0.038 0.221 0.060 0.392 0.196 0.49 0.392l0.088 0.179v2.314c0 2.556 0 2.559 0.217 2.78 0.242 0.245 0.060 0.231 2.776 0.231 2.325 0 2.458-0.004 2.573-0.067 0.172-0.091 0.277-0.193 0.361-0.354 0.077-0.14 0.077-0.165 0.095-2.577l0.017-2.433 0.095-0.147c0.053-0.077 0.172-0.189 0.263-0.242l0.168-0.098 1.474-0.018c1.39-0.018 1.481-0.021 1.551-0.084 0.088-0.081 0.095-0.196 0.017-0.354-0.032-0.067-1.369-1.418-3.077-3.105-2.762-2.731-3.039-2.993-3.218-3.067-0.256-0.102-0.536-0.098-0.784 0.004z"></path>
<path d="M5.868 9.828c-1.968 1.912-5.71 5.651-5.766 5.759-0.091 0.182-0.116 0.403-0.060 0.557 0.067 0.182 6.060 6.228 6.281 6.333 0.189 0.095 0.284 0.081 0.378-0.046l0.074-0.098v-6.344c0-3.491-0.011-6.386-0.028-6.438-0.038-0.14-0.119-0.203-0.259-0.203-0.112 0-0.172 0.046-0.62 0.48z"></path>
<path d="M25.901 9.565c-0.060 0.105-0.084 12.383-0.028 12.6 0.046 0.165 0.119 0.242 0.231 0.242 0.081 0 0.424-0.333 5.084-4.954 0.623-0.616 1.159-1.169 1.19-1.225 0.081-0.154 0.074-0.424-0.021-0.62-0.063-0.123-0.641-0.707-2.538-2.556-1.351-1.313-2.727-2.654-3.056-2.979-0.515-0.497-0.62-0.585-0.711-0.585-0.074 0-0.119 0.024-0.151 0.077z"></path>
<path d="M13.731 19.189c-0.168 0.084-0.308 0.249-0.378 0.441-0.035 0.105-0.046 0.63-0.049 2.601 0 1.498-0.014 2.517-0.035 2.587-0.056 0.203-0.207 0.382-0.396 0.476l-0.179 0.088h-1.4c-1.267 0-1.414 0.007-1.526 0.063-0.091 0.042-0.126 0.088-0.133 0.158-0.011 0.088 0.291 0.403 3.007 3.133 2.059 2.073 3.074 3.067 3.197 3.14 0.144 0.084 0.217 0.105 0.389 0.105 0.168 0 0.245-0.021 0.392-0.105 0.133-0.074 1.043-0.97 3.197-3.14 2.696-2.717 3.014-3.049 3.004-3.133-0.007-0.070-0.046-0.116-0.133-0.158-0.109-0.056-0.256-0.063-1.421-0.063-0.896 0-1.337-0.014-1.418-0.042-0.189-0.063-0.336-0.196-0.434-0.389l-0.088-0.179v-2.472c0-2.808 0.007-2.724-0.259-2.969-0.084-0.077-0.214-0.158-0.287-0.179-0.091-0.024-0.935-0.038-2.517-0.038-2.356 0-2.381 0-2.531 0.074z"></path>
</symbol>
<symbol id="icon-battery_charging_full" viewBox="0 0 24 24">
<path d="M11.016 20.016l3.984-7.5h-2.016v-5.531l-3.984 7.5h2.016v5.531zM15.656 3.984q0.563 0 0.961 0.398t0.398 0.961v15.328q0 0.563-0.398 0.938t-0.961 0.375h-7.313q-0.563 0-0.961-0.375t-0.398-0.938v-15.328q0-0.563 0.398-0.961t0.961-0.398h1.641v-1.969h4.031v1.969h1.641z"></path>
</symbol>
<symbol id="icon-cart" viewBox="0 0 32 32">
<path d="M12 29c0 1.657-1.343 3-3 3s-3-1.343-3-3c0-1.657 1.343-3 3-3s3 1.343 3 3z"></path>
<path d="M32 29c0 1.657-1.343 3-3 3s-3-1.343-3-3c0-1.657 1.343-3 3-3s3 1.343 3 3z"></path>
<path d="M32 16v-12h-24c0-1.105-0.895-2-2-2h-6v2h4l1.502 12.877c-0.915 0.733-1.502 1.859-1.502 3.123 0 2.209 1.791 4 4 4h24v-2h-24c-1.105 0-2-0.895-2-2 0-0.007 0-0.014 0-0.020l26-3.98z"></path>
</symbol>
<symbol id="icon-credit-card" viewBox="0 0 32 32">
<path d="M29 4h-26c-1.65 0-3 1.35-3 3v18c0 1.65 1.35 3 3 3h26c1.65 0 3-1.35 3-3v-18c0-1.65-1.35-3-3-3zM3 6h26c0.542 0 1 0.458 1 1v3h-28v-3c0-0.542 0.458-1 1-1zM29 26h-26c-0.542 0-1-0.458-1-1v-9h28v9c0 0.542-0.458 1-1 1zM4 20h2v4h-2zM8 20h2v4h-2zM12 20h2v4h-2z"></path>
</symbol>
<symbol id="icon-leaf" viewBox="0 0 32 32">
<path d="M31.604 4.203c-3.461-2.623-8.787-4.189-14.247-4.189-6.754 0-12.257 2.358-15.099 6.469-1.335 1.931-2.073 4.217-2.194 6.796-0.108 2.296 0.278 4.835 1.146 7.567 2.965-8.887 11.244-15.847 20.79-15.847 0 0-8.932 2.351-14.548 9.631-0.003 0.004-0.078 0.097-0.207 0.272-1.128 1.509-2.111 3.224-2.846 5.166-1.246 2.963-2.4 7.030-2.4 11.931h4c0 0-0.607-3.819 0.449-8.212 1.747 0.236 3.308 0.353 4.714 0.353 3.677 0 6.293-0.796 8.231-2.504 1.736-1.531 2.694-3.587 3.707-5.764 1.548-3.325 3.302-7.094 8.395-10.005 0.292-0.167 0.48-0.468 0.502-0.804s-0.126-0.659-0.394-0.862z"></path>
</symbol>
<symbol id="icon-shield" viewBox="0 0 32 32">
<path d="M30 0l-14 4-14-4c0 0-0.141 1.616 0 4l14 4.378 14-4.378c0.141-2.384 0-4 0-4zM2.256 6.097c0.75 7.834 3.547 21.007 13.744 25.903 10.197-4.896 12.995-18.069 13.744-25.903l-13.744 5.167-13.744-5.167z"></path>
</symbol>
<symbol id="icon-instagram" viewBox="0 0 32 32">
<path d="M16 2.881c4.275 0 4.781 0.019 6.462 0.094 1.563 0.069 2.406 0.331 2.969 0.55 0.744 0.288 1.281 0.638 1.837 1.194 0.563 0.563 0.906 1.094 1.2 1.838 0.219 0.563 0.481 1.412 0.55 2.969 0.075 1.688 0.094 2.194 0.094 6.463s-0.019 4.781-0.094 6.463c-0.069 1.563-0.331 2.406-0.55 2.969-0.288 0.744-0.637 1.281-1.194 1.837-0.563 0.563-1.094 0.906-1.837 1.2-0.563 0.219-1.413 0.481-2.969 0.55-1.688 0.075-2.194 0.094-6.463 0.094s-4.781-0.019-6.463-0.094c-1.563-0.069-2.406-0.331-2.969-0.55-0.744-0.288-1.281-0.637-1.838-1.194-0.563-0.563-0.906-1.094-1.2-1.837-0.219-0.563-0.481-1.413-0.55-2.969-0.075-1.688-0.094-2.194-0.094-6.463s0.019-4.781 0.094-6.463c0.069-1.563 0.331-2.406 0.55-2.969 0.288-0.744 0.638-1.281 1.194-1.838 0.563-0.563 1.094-0.906 1.838-1.2 0.563-0.219 1.412-0.481 2.969-0.55 1.681-0.075 2.188-0.094 6.463-0.094zM16 0c-4.344 0-4.887 0.019-6.594 0.094-1.7 0.075-2.869 0.35-3.881 0.744-1.056 0.412-1.95 0.956-2.837 1.85-0.894 0.888-1.438 1.781-1.85 2.831-0.394 1.019-0.669 2.181-0.744 3.881-0.075 1.713-0.094 2.256-0.094 6.6s0.019 4.887 0.094 6.594c0.075 1.7 0.35 2.869 0.744 3.881 0.413 1.056 0.956 1.95 1.85 2.837 0.887 0.887 1.781 1.438 2.831 1.844 1.019 0.394 2.181 0.669 3.881 0.744 1.706 0.075 2.25 0.094 6.594 0.094s4.888-0.019 6.594-0.094c1.7-0.075 2.869-0.35 3.881-0.744 1.050-0.406 1.944-0.956 2.831-1.844s1.438-1.781 1.844-2.831c0.394-1.019 0.669-2.181 0.744-3.881 0.075-1.706 0.094-2.25 0.094-6.594s-0.019-4.887-0.094-6.594c-0.075-1.7-0.35-2.869-0.744-3.881-0.394-1.063-0.938-1.956-1.831-2.844-0.887-0.887-1.781-1.438-2.831-1.844-1.019-0.394-2.181-0.669-3.881-0.744-1.712-0.081-2.256-0.1-6.6-0.1v0z"></path>
<path d="M16 7.781c-4.537 0-8.219 3.681-8.219 8.219s3.681 8.219 8.219 8.219 8.219-3.681 8.219-8.219c0-4.537-3.681-8.219-8.219-8.219zM16 21.331c-2.944 0-5.331-2.387-5.331-5.331s2.387-5.331 5.331-5.331c2.944 0 5.331 2.387 5.331 5.331s-2.387 5.331-5.331 5.331z"></path>
<path d="M26.462 7.456c0 1.060-0.859 1.919-1.919 1.919s-1.919-0.859-1.919-1.919c0-1.060 0.859-1.919 1.919-1.919s1.919 0.859 1.919 1.919z"></path>
</symbol>
</defs>
</svg>
